HIERARCHY
ROOT root
{
	OFFSET 0.000000 0.000000 0.000000
	CHANNELS 6 Xposition Yposition Zposition Zrotation Yrotation Xrotation
	JOINT lhip
	{
		OFFSET 0.058581 -0.082280 -0.017664
		CHANNELS 3 Zrotation Yrotation Xrotation
		JOINT lknee
		{
			OFFSET 0.043451 -0.386469 0.008037
			CHANNELS 3 Zrotation Yrotation Xrotation
			JOINT lankle
			{
				OFFSET -0.014790 -0.426874 -0.037428
				CHANNELS 3 Zrotation Yrotation Xrotation
				JOINT ltoe
				{
					OFFSET 0.041054 -0.060286 0.122042
					CHANNELS 3 Zrotation Yrotation Xrotation
					End Site
					{
						OFFSET 0.000000 0.000000 0.000000
					}
				}
			}
		}
	}
	JOINT rhip
	{
		OFFSET -0.060310 -0.090513 -0.013543
		CHANNELS 3 Zrotation Yrotation Xrotation
		JOINT rknee
		{
			OFFSET -0.043257 -0.383688 -0.004843
			CHANNELS 3 Zrotation Yrotation Xrotation
			JOINT rankle
			{
				OFFSET 0.019056 -0.420046 -0.034562
				CHANNELS 3 Zrotation Yrotation Xrotation
				JOINT rtoe
				{
					OFFSET -0.034840 -0.062106 0.130323
					CHANNELS 3 Zrotation Yrotation Xrotation
					End Site
					{
						OFFSET 0.000000 0.000000 0.000000
					}
				}
			}
		}
	}
	JOINT lowerback
	{
		OFFSET 0.004439 0.124404 -0.038385
		CHANNELS 3 Zrotation Yrotation Xrotation
		JOINT upperback
		{
			OFFSET 0.004488 0.137956 0.026820
			CHANNELS 3 Zrotation Yrotation Xrotation
			JOINT chest
			{
				OFFSET -0.002265 0.056032 0.002855
				CHANNELS 3 Zrotation Yrotation Xrotation
				JOINT lowerneck
				{
					OFFSET -0.013390 0.211636 -0.033468
					CHANNELS 3 Zrotation Yrotation Xrotation
					JOINT upperneck
					{
						OFFSET 0.010113 0.088937 0.050410
						CHANNELS 3 Zrotation Yrotation Xrotation
						End Site
						{
							OFFSET 0.000000 0.000000 0.000000
						}
					}
				}
				JOINT lclavicle
				{
					OFFSET 0.071702 0.114000 -0.018898
					CHANNELS 3 Zrotation Yrotation Xrotation
					JOINT lshoulder
					{
						OFFSET 0.122921 0.045205 -0.019046
						CHANNELS 3 Zrotation Yrotation Xrotation
						JOINT lelbow
						{
							OFFSET 0.255332 -0.015649 -0.022946
							CHANNELS 3 Zrotation Yrotation Xrotation
							JOINT lwrist
							{
								OFFSET 0.265709 0.012698 -0.007375
								CHANNELS 3 Zrotation Yrotation Xrotation
								End Site
								{
									OFFSET 0.000000 0.000000 0.000000
								}
							}
						}
					}
				}
				JOINT rclavicle
				{
					OFFSET -0.082954 0.112472 -0.023707
					CHANNELS 3 Zrotation Yrotation Xrotation
					JOINT rshoulder
					{
						OFFSET -0.113228 0.046853 -0.008472
						CHANNELS 3 Zrotation Yrotation Xrotation
						JOINT relbow
						{
							OFFSET -0.260127 -0.014369 -0.031269
							CHANNELS 3 Zrotation Yrotation Xrotation
							JOINT rwrist
							{
								OFFSET -0.269108 0.006794 -0.006027
								CHANNELS 3 Zrotation Yrotation Xrotation
								End Site
								{
									OFFSET 0.000000 0.000000 0.000000
								}
							}
						}
					}
				}
			}
		}
	}
}
MOTION
Frames: 10
Frame Time: 0.033333
0.109994 -0.869756 0.970573 178.233316 0.512439 87.059394 -1.879883 0.101302 -2.541961 -6.169495 -7.579662 10.126835 7.012574 13.135442 -21.291466 0.000000 -0.000000 0.000000 -5.693046 -1.785057 -27.019728 -1.407632 -15.488364 57.231512 4.668387 -16.804471 -16.521490 0.000000 -0.000000 0.000000 -2.562361 -2.152520 16.539294 0.731987 1.925061 -7.651306 0.115402 -0.214017 2.965087 4.920188 8.837585 0.166526 -4.067239 4.331199 20.472825 -26.026351 2.558889 -0.753775 -45.349595 -7.993785 5.078440 14.787010 -28.211393 -7.636221 13.940011 -8.173097 -0.953074 26.631261 0.999364 -0.131392 47.566942 8.992672 14.517366 -6.304995 32.468713 0.029507 1.140492 6.846990 -0.551928 
0.108434 -0.841144 0.970037 178.656256 0.915400 86.840078 -1.546078 1.408881 1.155667 -5.793751 -9.543238 7.945251 6.091035 12.931709 -21.970133 0.000000 -0.000000 0.000000 -4.982499 -0.697692 -30.201283 -0.288214 -15.185146 48.781561 5.129902 -15.720947 -17.311922 0.000000 -0.000000 0.000000 -2.178127 -3.252534 17.033075 0.557624 2.036496 -7.776630 0.371931 -0.606994 3.103034 4.599947 9.518325 0.615966 -4.132477 4.624781 19.706201 -25.919340 2.411664 -0.780274 -44.539418 -8.795308 5.053854 15.275722 -30.837430 -8.350173 14.380307 -8.472145 -1.046734 26.533519 1.044881 -0.231578 47.386129 8.830955 14.636707 -6.878926 33.869561 -0.233302 0.474559 6.789577 -1.155007 
0.108201 -0.812446 0.968372 179.170059 1.148662 86.995435 -1.228445 2.419832 4.077525 -5.247700 -11.013704 6.407526 5.793488 12.164015 -22.731283 0.000000 -0.000000 0.000000 -4.670573 -0.258935 -32.958415 -0.216747 -15.223399 38.691472 6.171645 -15.573412 -15.303190 0.000000 -0.000000 0.000000 -2.210089 -4.152992 17.194656 0.415004 2.121302 -7.842658 0.794876 -0.946973 2.918456 4.374090 9.877499 1.215685 -3.984973 4.869680 19.238143 -25.601702 2.290120 -0.622920 -44.108268 -9.758760 4.990306 16.017564 -32.594514 -9.008578 14.905128 -9.007531 -0.375030 26.530379 0.732638 -0.362431 47.102368 8.670607 14.597482 -7.081296 35.187580 -0.468841 0.201226 6.960687 -0.616841 
0.111037 -0.768331 0.962232 -179.502260 1.218308 87.987998 -0.493169 3.223851 7.159253 -4.992842 -12.850413 5.180401 5.293649 11.356381 -23.535648 0.000000 -0.000000 0.000000 -4.284844 1.047887 -35.667393 1.385214 -10.937177 22.021918 7.358582 -13.278688 -12.728027 0.000000 -0.000000 0.000000 -2.706636 -4.959677 16.255237 0.530426 2.006004 -7.561095 1.294275 -1.790373 2.497391 4.331189 10.236231 2.065259 -3.827163 5.166367 18.940092 -25.058660 2.223507 -0.061191 -43.496914 -11.082814 5.477214 17.104330 -34.974804 -9.686189 16.097443 -9.430438 -0.047572 26.339107 -0.347902 -0.471174 47.039285 8.578112 15.172622 -7.492008 37.380604 -0.007288 -0.477565 6.871748 -0.758445 
0.112450 -0.752869 0.959484 -178.898459 1.122798 88.425781 -0.240660 3.559189 8.015082 -4.988798 -13.650000 4.925037 5.193660 11.037259 -23.923273 0.000000 -0.000000 0.000000 -4.304426 1.259903 -36.890076 1.828876 -8.543879 19.163679 7.503712 -11.814373 -13.226529 0.000000 -0.000000 0.000000 -2.995938 -5.135261 15.650369 0.630626 1.905279 -7.319111 1.374774 -2.027569 2.109740 4.384111 10.489843 2.502997 -3.753383 4.948767 18.847895 -24.745394 2.176431 0.224716 -43.458176 -11.372177 5.709740 17.485344 -35.499519 -9.507531 16.208246 -9.268593 -0.159003 26.290928 -0.782000 -0.169718 47.016720 8.548669 15.037528 -7.576707 38.169318 0.440724 -0.365028 6.836789 -1.068871 
0.115356 -0.720958 0.953552 -177.483399 0.812989 89.078829 0.318977 4.052056 9.998795 -5.011848 -15.309123 4.398558 4.517995 10.832190 -25.406618 0.000000 -0.000000 0.000000 -4.713877 1.382001 -39.021035 2.695661 -4.703259 17.239739 8.933647 -7.813914 -12.830253 0.000000 -0.000000 0.000000 -3.598033 -5.510883 14.670214 0.845478 1.738506 -6.884052 1.504175 -2.454782 1.721991 4.563216 10.888078 2.783907 -3.911763 4.489131 18.698153 -24.536723 2.190722 0.220391 -43.282081 -11.801705 6.085581 17.807163 -36.519723 -9.611879 16.339612 -9.391242 0.162666 26.211438 -1.638236 -0.253740 46.724378 8.313143 14.918045 -7.393880 39.791922 1.136334 0.155917 6.494779 -1.462023 
0.118731 -0.686569 0.947657 -175.769803 0.832205 89.242081 1.267243 3.996810 12.453920 -4.886544 -16.869358 4.436288 4.037982 10.886553 -25.941969 0.000000 -0.000000 0.000000 -5.126388 2.286127 -38.930121 3.492653 -3.316588 18.460219 9.894802 -6.857015 -12.023820 0.000000 -0.000000 0.000000 -3.607922 -6.098274 13.845782 0.982604 1.733323 -6.490338 1.402337 -2.856710 1.816467 4.851545 10.601755 2.404764 -4.425551 4.512000 19.149826 -24.809536 2.314261 0.048772 -42.972239 -11.930523 6.351954 18.001610 -37.314227 -9.692866 16.461612 -9.782634 0.537786 26.159876 -2.258685 -0.823200 46.102400 7.925482 15.231951 -6.836827 41.046423 2.225277 0.369159 6.414390 -0.947999 
0.123504 -0.650771 0.942747 -174.177677 1.453243 89.070940 2.890798 3.453157 14.851299 -4.764998 -18.010089 5.556836 3.414730 11.266159 -26.185530 0.000000 -0.000000 0.000000 -4.955519 3.402790 -38.130526 3.799295 -4.485817 22.023385 9.862546 -6.519767 -8.921094 0.000000 -0.000000 0.000000 -2.986350 -6.652498 13.388653 1.021397 1.873596 -6.013009 1.215244 -3.005082 1.624642 4.506794 10.560068 1.835103 -4.699198 4.798081 19.208694 -24.850069 2.475124 0.123898 -43.207820 -11.547862 6.251852 18.364450 -37.911713 -9.366195 15.006344 -9.764902 0.304568 26.109633 -2.517088 -1.143321 45.315914 7.788048 15.061661 -5.887298 41.957469 4.151573 1.180435 6.523242 -0.435224 
0.129644 -0.614568 0.940151 -173.026060 2.316071 88.957094 4.660502 2.500110 16.389795 -5.198033 -18.792885 8.259739 2.133099 12.002286 -25.958971 0.000000 -0.000000 0.000000 -5.012054 4.112238 -38.678288 4.358478 -6.707469 27.246857 8.775329 -8.786763 -6.108498 0.000000 -0.000000 0.000000 -2.348599 -7.169756 13.099658 1.137293 2.418767 -5.837005 1.040659 -3.035252 1.985064 4.468554 10.415521 0.524219 -5.240175 5.408601 20.161978 -25.149421 3.189362 -0.022923 -43.429383 -10.515833 6.171658 18.704030 -38.990413 -8.801757 14.183137 -9.321304 0.563107 26.518347 -2.222298 -1.494682 44.249878 8.120794 15.096173 -5.361617 42.594795 5.419234 1.759279 6.566525 1.100867 
0.136121 -0.578673 0.940330 -172.614621 3.459476 88.857767 6.461781 1.161743 16.577730 -6.656701 -17.706083 13.519974 0.134495 12.664793 -25.005906 0.000000 -0.000000 0.000000 -4.831345 4.800962 -38.078750 6.031109 -9.119332 31.071658 7.455235 -9.064714 -6.714340 0.000000 -0.000000 0.000000 -1.528118 -7.135442 12.590757 1.380717 2.883517 -5.179656 0.772063 -2.685362 2.031730 4.594027 10.689901 -0.369185 -5.719365 5.281410 21.074167 -25.398704 3.821632 -0.026029 -43.931336 -8.781024 6.079774 19.151796 -39.421697 -8.762508 13.383101 -9.363725 0.522092 26.798664 -1.478610 -1.280487 43.565930 8.929766 15.005223 -4.791044 42.836046 6.716004 1.126780 6.699855 1.908641 
